# WaveFront *.obj file (generated by CINEMA 4D)

v 79.08861541748047 -37.51155090332031 48.3515739440918
v 49.7169075012207 -86.66040802001953 4.26655101776123
v 91.28709411621094 39.912353515625 -8.58317184448242
v 40.8248291015625 78.81440734863281 -46.06107330322266
v -79.08861541748047 48.3515739440918 -37.51155090332031
v -49.7169075012207 4.26655101776123 -86.66040802001953
v -91.28709411621094 -8.58317184448242 39.912353515625
v -40.8248291015625 -46.06107330322266 78.81440734863281
v -7.03440999984741 45.29119110107422 88.87758636474609
v 7.03440999984741 88.87758636474609 45.29119110107422
v 34.98195266723633 -44.12548065185547 -82.63899993896484
v -34.98195266723633 -82.63899993896484 -44.12548065185547
v 76.33598327636719 -45.009521484375 -46.33530807495117
v 28.97385787963867 30.09895896911621 -90.85465240478516
v -76.33598327636719 -46.33530807495117 -45.009521484375
v -28.97385787963867 -90.85465240478516 30.09895896911621
v 76.33598327636719 45.009521484375 46.33530807495117
v -28.97385787963867 90.85465240478516 -30.09895896911621
v -76.33598327636719 46.33530807495117 45.009521484375
v 28.97385787963867 -30.09895896911621 90.85465240478516
# 20 vertices

vn 0.54548853635788 0.23810628056526 0.80358427762985
vn 0.64974355697632 0.04022039100528 0.75908863544464
vn 0 0 0
vn -0.18574947118759 -0.70846778154373 -0.68086016178131
vn 0.97387039661407 -0.22014872729778 0.05577598512173
vn 0.91800308227539 -0.28445973992348 0.27632051706314
vn -0.16654975712299 0.63483947515488 -0.75448000431061
vn -0.04904495552182 0.68247932195663 -0.72925758361816
vn -0.54548853635788 0.80358427762985 0.23810628056526
vn -0.64974355697632 0.75908863544464 0.04022039100528
vn 0.18574947118759 -0.68086016178131 -0.70846778154373
vn -0.97387039661407 0.05577598512173 -0.22014872729778
vn -0.91800308227539 0.27632051706314 -0.28445973992348
vn 0.16654975712299 -0.75448000431061 0.63483947515488
vn 0.04904495552182 -0.72925758361816 0.68247932195663
vn -0.47485095262527 -0.02835533954203 0.87960934638977
vn -0.5231751203537 -0.22834990918636 0.82106280326843
vn 0.47485095262527 0.87960928678513 -0.02835532836616
vn 0.52317517995834 0.82106274366379 -0.2283498942852
vn 0.71797013282776 0.11239632964134 -0.68693959712982
vn 0.65907382965088 -0.02983077056706 -0.75148642063141
vn -0.71797013282776 -0.68693959712982 0.11239632964134
vn -0.65907382965088 -0.75148642063141 -0.02983077056706
vn 0.97530138492584 -0.14353206753731 -0.16788625717163
vn 0.28127098083496 -0.76709276437759 0.57658940553665
vn 0.40479725599289 0.89790427684784 0.17293681204319
vn 0.75686115026474 0.25149166584015 -0.60325217247009
vn -0.97530138492584 -0.16788625717163 -0.14353206753731
vn -0.28127098083496 0.57658940553665 -0.76709276437759
vn -0.40479722619057 0.17293678224087 0.89790427684784
vn -0.75686115026474 -0.60325217247009 0.25149166584015
vn -0.41286379098892 0.80628722906113 0.4236087501049
vn 0.41286379098892 0.4236087501049 0.80628722906113
vn -0.32016438245773 -0.20201595127583 -0.92557245492935
vn 0.32016438245773 -0.92557245492935 -0.20201593637466
# 35 normals

vt 0.22599998116493 0.22300004959106 0
vt 0.408999979496 0.35500001907349 0
vt 0.36599999666214 0.22300004959106 0
vt 0 1 0
vt 0.74699997901916 0.43800008296967 0
vt 0.93000000715256 0.56999999284744 0
vt 0.8870000243187 0.43800008296967 0
vt 0.591000020504 0.22300004959106 0
vt 0.54799997806549 0.35500001907349 0
vt 0.40900000929832 0.7849999666214 0
vt 0.59099996089935 0.65200001001358 0
vt 0.45199999213219 0.65200001001358 0
vt 0.25299999117851 0.56999999284744 0
vt 0.07000000029802 0.43700003623962 0
vt 0.11299999803305 0.56999999284744 0
vt 0.7739999294281 0.7849999666214 0
vt 0.63399994373322 0.7849999666214 0
vt 0.7039999961853 1 0
vt 0.81699997186661 0.91799998283386 0
vt 0.2960000038147 0.00800001621246 0
vt 0.18299999833107 0.0900000333786 0
vt 0.04300000146031 0.35500001907349 0
vt 0.18299999833107 0.35500001907349 0
vt 0.33899998664856 0.56999999284744 0
vt 0.2960000038147 0.43700003623962 0
vt 0.66100001335144 0.43800008296967 0
vt 0.7039999961853 0.56999999284744 0
vt 0.95700001716614 0.65200001001358 0
vt 0.81699991226196 0.65200001001358 0
vt 0.47799998521805 0.14100003242493 0
vt 0.40900000929832 0.0900000333786 0
vt 0.47799998521805 0.56999999284744 0
vt 0.52200001478195 0.43800008296967 0
vt 0.591000020504 0.91799998283386 0
vt 0.52200001478195 0.86699998378754 0
vt 0.11299999803305 0.14100003242493 0
vt 0 0.22300004959106 0
vt 0.8870000243187 0.86699998378754 0
vt 1 0.7849999666214 0
# 39 texture coordinates

o Platonic.1
usemtl default
f 1/3/2 17/2/1 20/1/1
f 2/7/4 16/6/4 13/5/4
f 3/9/6 17/2/5 13/8/5
f 4/12/8 14/11/7 18/10/7
f 5/15/10 19/14/9 18/13/9
f 6/17/11 14/11/11 15/16/11
f 7/19/13 19/18/12 15/16/12
f 8/21/15 16/20/14 20/1/14
f 9/23/17 19/22/16 20/1/16
f 10/25/19 17/2/18 18/24/18
f 11/27/21 14/11/20 13/26/20
f 12/29/23 16/28/22 15/16/22
f 1/3/24 2/30/24 13/8/5 17/2/5
f 2/31/25 1/3/25 20/1/14 16/20/14
f 3/33/26 4/32/26 18/24/18 17/2/18
f 4/32/27 3/33/27 13/26/20 14/11/20
f 5/34/28 6/17/28 15/16/12 19/18/12
f 6/17/29 5/35/29 18/10/7 14/11/7
f 7/37/30 8/36/30 20/1/16 19/22/16
f 8/39/31 7/38/31 15/16/22 16/28/22
f 9/23/32 10/25/32 18/13/9 19/14/9
f 10/25/33 9/23/33 20/1/1 17/2/1
f 11/27/34 12/29/34 15/16/34 14/11/34
f 12/29/35 11/27/35 13/5/35 16/6/35

