# WaveFront *.obj file (generated by CINEMA 4D)

v -15.27178859710693 164.57136535644531 -74.57017517089844
v -17.07910537719727 59.65839767456055 142.08665466308594
v 102.04154205322266 24.4578685760498 117.57269287109375
v 110.421630859375 -25.14020538330078 66.94972229003906
v 45.77874374389648 -8.35458850860596 -110.29927825927734
v 10.07698822021484 -81.26901245117188 22.46587562561035
v -85.63468170166016 2.24749088287354 -91.31820678710938
v -110.421630859375 68.41542816162109 -81.30362701416016
v 59.83727645874023 111.72534942626953 -200.3271484375
v 101.35104370117188 116.69435882568359 -132.39852905273438
v 35.30797958374023 -164.57136535644531 185.82192993164062
v -37.31175994873047 -149.85397338867188 179.24851989746094
v 54.94129943847656 -53.17440414428711 200.3271484375
v 61.57773590087891 -112.16185760498047 101.28285217285156
v -57.64321136474609 -85.33378601074219 66.85165405273438
v -72.22986602783203 -2.74158763885498 146.21846008300781
v 79.35532379150391 138.8900146484375 -20.48274612426758
v 108.63499450683594 35.80264282226562 -63.48307418823242
v 14.19829273223877 29.28242683410645 -179.99673461914062
v -25.90782737731934 136.34439086914062 -163.79281616210938
# 20 vertices

vn 0.29950773715973 0.92201668024063 -0.24531678855419
vn 0.41377595067024 0.8526337146759 -0.3190692961216
vn 0 0 0
vn -0.25305423140526 0.19241915643215 0.94812363386154
vn -0.27045837044716 0.29961961507797 0.91492092609406
vn 0.0739234238863 0.79266059398651 0.60516488552094
vn -0.11254806816578 0.75584560632706 0.64500415325165
vn 0.68897384405136 -0.57249623537064 -0.4444807767868
vn 0.607053399086 -0.76758527755737 -0.20566706359386
vn 0.9708126783371 -0.23611515760422 0.0421002022922
vn 0.72529655694962 -0.44745180010796 -0.52319383621216
vn 0.37771326303482 -0.75998657941818 -0.52891683578491
vn -0.12751223146915 -0.89039045572281 -0.43697309494019
vn 0.06718435883522 -0.90843141078949 -0.41259980201721
vn -0.14523606002331 -0.87261974811554 -0.46630603075027
vn -0.16709911823273 -0.87477427721024 -0.45480534434319
vn -0.64268213510513 0.72052562236786 0.26038902997971
vn -0.37121072411537 0.86664766073227 0.33335337042809
vn -0.52348017692566 -0.06754835695028 -0.8493560552597
vn -0.39403492212296 -0.00850817840546 -0.91905605792999
vn 0.9730110168457 0.21036587655544 0.09484587609768
vn 0.96588718891144 0.21275472640991 0.14763920009136
vn 0.93210422992706 -0.25013655424118 0.26194164156914
vn 0.9645015001297 -0.1934034973383 0.17981077730656
vn -0.96576720476151 -0.25475358963013 0.04893231764436
vn -0.97421532869339 -0.2200281471014 0.04992093518376
vn 0.25760695338249 0.7995810508728 0.54250228404999
vn -0.84964621067047 0.50208288431168 0.16128890216351
vn 0.97833943367004 -0.05069641396403 0.20070342719555
vn -0.63978612422943 -0.12489307671785 -0.7583372592926
vn -0.95608454942703 -0.2891534268856 0.04788114875555
vn 0.73583042621613 -0.46622779965401 -0.49110615253448
vn 0.17825777828693 0.96990686655045 -0.16584579646587
vn -0.08625217527151 -0.84969091415405 -0.5201787352562
vn -0.23238636553288 0.08273703604937 0.96909809112549
# 35 normals

vt 0.22599998116493 0.22300004959106 0
vt 0.408999979496 0.35500001907349 0
vt 0.36599999666214 0.22300004959106 0
vt 0 1 0
vt 0.74699997901916 0.43800008296967 0
vt 0.93000000715256 0.56999999284744 0
vt 0.8870000243187 0.43800008296967 0
vt 0.591000020504 0.22300004959106 0
vt 0.54799997806549 0.35500001907349 0
vt 0.40900000929832 0.7849999666214 0
vt 0.59099996089935 0.65200001001358 0
vt 0.45199999213219 0.65200001001358 0
vt 0.25299999117851 0.56999999284744 0
vt 0.07000000029802 0.43700003623962 0
vt 0.11299999803305 0.56999999284744 0
vt 0.7739999294281 0.7849999666214 0
vt 0.63399994373322 0.7849999666214 0
vt 0.7039999961853 1 0
vt 0.81699997186661 0.91799998283386 0
vt 0.2960000038147 0.00800001621246 0
vt 0.18299999833107 0.0900000333786 0
vt 0.04300000146031 0.35500001907349 0
vt 0.18299999833107 0.35500001907349 0
vt 0.33899998664856 0.56999999284744 0
vt 0.2960000038147 0.43700003623962 0
vt 0.66100001335144 0.43800008296967 0
vt 0.7039999961853 0.56999999284744 0
vt 0.95700001716614 0.65200001001358 0
vt 0.81699991226196 0.65200001001358 0
vt 0.47799998521805 0.14100003242493 0
vt 0.40900000929832 0.0900000333786 0
vt 0.47799998521805 0.56999999284744 0
vt 0.52200001478195 0.43800008296967 0
vt 0.591000020504 0.91799998283386 0
vt 0.52200001478195 0.86699998378754 0
vt 0.11299999803305 0.14100003242493 0
vt 0 0.22300004959106 0
vt 0.8870000243187 0.86699998378754 0
vt 1 0.7849999666214 0
# 39 texture coordinates

o Platonic.1
usemtl default
f 1/3/2 17/2/1 20/1/1
f 2/7/5 16/6/4 13/5/4
f 3/9/7 17/2/6 13/8/6
f 4/12/10 14/11/9 18/10/8
f 5/15/12 19/14/11 18/13/8
f 6/17/14 14/11/9 15/16/13
f 7/19/16 19/18/15 15/16/13
f 8/21/18 16/20/17 20/1/17
f 9/23/20 19/22/19 20/1/19
f 10/25/22 17/2/21 18/24/21
f 11/27/24 14/11/9 13/26/23
f 12/29/26 16/28/25 15/16/25
f 1/3/27 2/30/27 13/8/6 17/2/6
f 2/31/28 1/3/28 20/1/17 16/20/17
f 3/33/29 4/32/10 18/24/21 17/2/21
f 4/32/10 3/33/29 13/26/23 14/11/9
f 5/34/12 6/17/14 15/16/13 19/18/15
f 6/17/14 5/35/12 18/10/8 14/11/9
f 7/37/30 8/36/30 20/1/19 19/22/19
f 8/39/31 7/38/31 15/16/25 16/28/25
f 9/23/32 10/25/32 18/13/8 19/14/11
f 10/25/33 9/23/33 20/1/1 17/2/1
f 11/27/34 12/29/34 15/16/13 14/11/9
f 12/29/35 11/27/35 13/5/4 16/6/4

