
v 25 -12.5 -725
v 25 12.5 -700
v -25 -12.5 -725
v -25 12.5 -700
v -25 0 -675
v 25 0 -675
v 7.5 -21.0777759552002 -803.125
v 7.5 -10.2524585723877 -796.875
v -7.5 -21.0777759552002 -803.125
v -7.5 -10.2524585723877 -796.875
v -25 0 -575
v -5 25 -575
v 25 0 -575
v 5 25 -575
v -6.25 -2.5 -522.5
v -12.5 12.5 -525
v 6.25 -2.5 -522.5
v 12.5 12.5 -525
v 125 2.59150815010071 -624.67376708984375
v 125 10.04953956604004 -625.46612548828125
v 125 7.87360429763794 -574.95355224609375
v 125 15.33163642883301 -575.74591064453125
v -125 2.59150815010071 -624.67376708984375
v -125 10.04953956604004 -625.46612548828125
v -125 7.87360429763794 -574.95355224609375
v -125 15.33163642883301 -575.74591064453125
v -137.5 2.59150815010071 -624.67376708984375
v -137.5 10.04953956604004 -625.46612548828125
v -137.5 7.87360429763794 -574.95355224609375
v -137.5 15.33163642883301 -575.74591064453125
v 137.5 2.59150815010071 -624.67376708984375
v 137.5 10.04953956604004 -625.46612548828125
v 137.5 7.87360429763794 -574.95355224609375
v 137.5 15.33163642883301 -575.74591064453125
v -130.625 -1.97552192211151 -699.61065673828125
v -130.625 -1.22971880435944 -699.68988037109375
v -131.875 -1.97552192211151 -699.61065673828125
v -131.875 -1.22971880435944 -699.68988037109375
v 130.625 -1.97552192211151 -699.61065673828125
v 130.625 -1.22971880435944 -699.68988037109375
v 131.875 -1.97552192211151 -699.61065673828125
v 131.875 -1.22971880435944 -699.68988037109375
v -2.25 45 -512.5
v 2.25 45 -512.5
v -0.00000000000002 -12.5 -675
v -0.00000000000001 -12.5 -575
v -0.00000000000003 -12.5 -725
# 47 vertices

vn -0 0.50001102685928 -0.86601907014847
vn -0.98925507068634 0.09031296521425 -0.11496933549643
vn -1 0 0
vn 0 0.16437873244286 0.98639732599258
vn 0 -0.10081555694342 0.99490511417389
vn 1 0 -0
vn 0.98971891403198 0.08969034254551 -0.11140978336334
vn 0 0 0
vn -0.14953589439392 -0.98237425088882 0.11215973645449
vn -0.31097221374512 -0.94588547945023 0.09271977841854
vn 0 -0.99540215730667 0.09578386694193
vn 0.95908540487289 0.17753548920155 -0.22053651511669
vn -0 0.97351378202438 -0.22862823307514
vn -0.9572479724884 0.17869295179844 -0.22747567296028
vn -0.99930053949356 -0.00393757596612 -0.03718822076917
vn -0.04178210347891 0.99436402320862 -0.09743948280811
vn 0.04553182423115 0.99416875839233 -0.09775123000145
vn 0.99930053949356 -0.00393757596612 -0.03718822076917
vn 0.32081934809685 -0.94539523124695 0.05746997892857
vn 0.31922051310539 -0.9431614279747 0.09243800491095
vn 0.05909387767315 -0.9954708814621 0.07446891069412
vn -0.99258863925934 0.11575304716825 0.0370009765029
vn -0.9753874540329 0.22015906870365 -0.01221890654415
vn -0 0.95242995023727 -0.30475759506226
vn 0.96568489074707 0.2503824532032 0.06900204718113
vn 0.96475774049759 0.17356389760971 0.19778284430504
vn 0.04553198069334 0.99385964870453 -0.10084536671638
vn 0.03037588298321 0.99262261390686 -0.11737841367722
vn 0.4183237850666 -0.53120177984238 -0.73676985502243
vn 0.01734406128526 -0.9971741437912 0.07309506088495
vn 0.02603163383901 -0.99651473760605 0.07925117015839
vn 0.00356253422797 0.07918825745583 0.99685329198837
vn 0.00712516438216 0.05268871411681 0.99858558177948
vn -0.01281272247434 -0.99676734209061 0.07931388169527
vn -0.2379455268383 -0.96868896484375 0.0708773881197
vn -0.00853127334267 -0.99728399515152 0.07315645366907
vn -0.47212997078896 -0.53884941339493 -0.69766366481781
vn -0.02784386835992 0.99272304773331 -0.11715675890446
vn -0.04178228974342 0.99405592679977 -0.10053374618292
vn 0.00053126493003 0.08059600740671 0.99674671888351
vn 0.00106252008118 0.05553229525685 0.99845629930496
vn 0 -0.99440568685532 0.10562826693058
vn 0 -0.99652850627899 0.08325237780809
vn -0 -0.10562826693058 -0.99440568685532
vn -0 0.99178171157837 -0.12794157862663
vn -0 0.99440568685532 -0.10562826693058
vn 0 0.10562826693058 0.99440568685532
vn 0 -0.99814909696579 0.06081396713853
vn 0.99720150232315 -0.00787511095405 -0.07434479147196
vn -0 0.98865216970444 -0.15022288262844
vn -0.99720150232315 -0.00787511095405 -0.07434479147196
vn -0.94488894939423 0.32159850001335 -0.06131340190768
vn 0.94488894939423 0.32159850001335 -0.06131340190768
vn 0 -0.35897070169449 0.93334883451462
vn 0.14953589439392 -0.98237425088882 0.11215973645449
vn 0 -0.99734318256378 0.07284599542618
vn 0 -0.99402767419815 0.10912804305553
vn 0.11475275456905 -0.98280483484268 0.14465972781181
vn -0.22819347679615 -0.96105641126633 0.15587908029556
# 59 normals

vt 0 0 0
vt 0 1 0
vt 1 1 0
vt 1 0 0
vt 0.50139331817627 0 0
vt 0.49860668182373 0 0
vt 0.55026984214783 0 0
vt 0.50846666097641 0 0
# 8 texture coordinates

o Cube
usemtl default
f 9/4/1 10/3/1 8/2/1 7/1/1
f 3/4/3 5/3/3 4/2/2
f 17/4/4 18/3/5 16/2/5 15/1/4
f 1/4/7 2/3/7 2/2/6 6/1/6
f 4/3/8 2/2/8 2/1/8
f 45/5/11 5/4/10 3/3/9
f 8/2/12 2/2/7 1/1/7 7/1/12
f 10/3/13 4/3/13 2/2/13 8/2/13
f 9/4/14 3/4/2 4/3/2 10/3/14
f 30/2/3 28/2/15 27/1/15 29/1/3
f 14/3/17 2/3/17 4/2/16 12/2/16
f 33/4/6 31/4/18 32/3/18 34/3/6
f 46/7/21 45/6/11 6/4/20 13/4/19
f 16/2/23 12/2/23 11/1/22 15/1/22
f 44/3/24 14/3/24 12/2/24 43/2/24
f 17/4/26 13/4/26 14/3/25 18/3/25
f 20/3/28 2/3/17 14/3/17 22/3/27
f 19/4/29 6/4/29 2/3/29 20/3/29
f 21/4/31 13/4/19 6/4/20 19/4/30
f 22/3/32 14/3/33 13/4/33 21/4/32
f 23/1/36 5/1/10 11/1/35 25/1/34
f 24/2/37 4/2/37 5/1/37 23/1/37
f 26/2/39 12/2/16 4/2/16 24/2/38
f 25/1/40 11/1/41 12/2/41 26/2/40
f 27/1/43 23/1/36 25/1/34 29/1/42
f 38/2/44 36/2/44 35/1/44 37/1/44
f 30/2/46 26/2/39 24/2/38 28/2/45
f 29/1/47 25/1/40 26/2/40 30/2/47
f 32/3/45 20/3/28 22/3/27 34/3/46
f 41/4/44 39/4/44 40/3/44 42/3/44
f 33/4/42 21/4/31 19/4/30 31/4/43
f 34/3/47 22/3/32 21/4/32 33/4/47
f 35/1/48 23/1/36 27/1/43 37/1/48
f 36/2/49 24/2/49 23/1/49 35/1/49
f 38/2/50 28/2/45 24/2/38 36/2/50
f 37/1/51 27/1/15 28/2/15 38/2/51
f 40/3/50 20/3/28 32/3/45 42/3/50
f 39/4/51 19/4/51 20/3/51 40/3/51
f 41/4/48 31/4/43 19/4/30 39/4/48
f 42/3/49 32/3/18 31/4/18 41/4/49
f 12/2/23 16/2/23 43/2/52
f 14/3/8 12/2/8 12/2/8
f 44/3/25 18/3/25 14/3/53
f 43/2/54 16/2/5 18/3/5 44/3/54
f 46/7/21 11/1/35 5/1/10 45/6/11
f 1/2/55 6/1/20 45/5/11
f 3/1/9 47/4/56 1/3/55 45/2/11
f 7/1/57 1/1/55 47/8/56 3/4/9 9/4/57
f 15/1/59 11/1/35 46/7/21 13/4/19 17/4/58

